{
    "asset" : {
        "generator" : "Khronos glTF Blender I/O v1.1.46",
        "version" : "2.0"
    },
    "scene" : 0,
    "scenes" : [
        {
            "name" : "Scene",
            "nodes" : [
                0
            ]
        }
    ],
    "nodes" : [
        {
            "mesh" : 0,
            "name" : "2eye",
            "rotation" : [
                0.7071068286895752,
                0,
                0,
                0.7071067094802856
            ],
            "translation" : [
                2.188643217086792,
                10.873088836669922,
                1.1768447160720825
            ]
        }
    ],
    "materials" : [
        {
            "doubleSided" : true,
            "emissiveFactor" : [
                0,
                0,
                0
            ],
            "name" : "balloon",
            "pbrMetallicRoughness" : {
                "baseColorFactor" : [
                    1,
                    0.7727087736129761,
                    0.7727087736129761,
                    1
                ],
                "metallicFactor" : 0,
                "roughnessFactor" : 0.4000000059604645
            }
        },
        {
            "doubleSided" : true,
            "emissiveFactor" : [
                0,
                0,
                0
            ],
            "name" : "pupil",
            "pbrMetallicRoughness" : {
                "baseColorFactor" : [
                    0,
                    0,
                    0,
                    1
                ],
                "metallicFactor" : 0,
                "roughnessFactor" : 0.15000000596046448
            }
        },
        {
            "doubleSided" : true,
            "emissiveFactor" : [
                0,
                0,
                0
            ],
            "name" : "iris",
            "pbrMetallicRoughness" : {
                "baseColorFactor" : [
                    0.16880905628204346,
                    0.16390956938266754,
                    0.16999131441116333,
                    1
                ],
                "metallicFactor" : 0,
                "roughnessFactor" : 0.15000000596046448
            }
        },
        {
            "doubleSided" : true,
            "emissiveFactor" : [
                0,
                0,
                0
            ],
            "name" : "whites",
            "pbrMetallicRoughness" : {
                "baseColorFactor" : [
                    0.800000011920929,
                    0.800000011920929,
                    0.800000011920929,
                    1
                ],
                "metallicFactor" : 0,
                "roughnessFactor" : 0.15000000596046448
            }
        },
        {
            "doubleSided" : true,
            "emissiveFactor" : [
                0,
                0,
                0
            ],
            "name" : "string",
            "pbrMetallicRoughness" : {
                "baseColorFactor" : [
                    0.38317039608955383,
                    0.38317039608955383,
                    0.38317039608955383,
                    1
                ],
                "metallicFactor" : 0,
                "roughnessFactor" : 0.5
            }
        }
    ],
    "meshes" : [
        {
            "name" : "2eye",
            "primitives" : [
                {
                    "attributes" : {
                        "POSITION" : 0,
                        "NORMAL" : 1,
                        "TEXCOORD_0" : 2
                    },
                    "indices" : 3,
                    "material" : 0
                },
                {
                    "attributes" : {
                        "POSITION" : 4,
                        "NORMAL" : 5,
                        "TEXCOORD_0" : 6
                    },
                    "indices" : 7,
                    "material" : 1
                },
                {
                    "attributes" : {
                        "POSITION" : 8,
                        "NORMAL" : 9,
                        "TEXCOORD_0" : 10
                    },
                    "indices" : 11,
                    "material" : 2
                },
                {
                    "attributes" : {
                        "POSITION" : 12,
                        "NORMAL" : 13,
                        "TEXCOORD_0" : 14
                    },
                    "indices" : 15,
                    "material" : 3
                },
                {
                    "attributes" : {
                        "POSITION" : 16,
                        "NORMAL" : 17,
                        "TEXCOORD_0" : 18
                    },
                    "indices" : 19,
                    "material" : 4
                }
            ]
        }
    ],
    "accessors" : [
        {
            "bufferView" : 0,
            "componentType" : 5126,
            "count" : 8694,
            "max" : [
                2.6541757583618164,
                2.477736473083496,
                2.784144639968872
            ],
            "min" : [
                -2.4161901473999023,
                -2.4112329483032227,
                -3.5723609924316406
            ],
            "type" : "VEC3"
        },
        {
            "bufferView" : 1,
            "componentType" : 5126,
            "count" : 8694,
            "type" : "VEC3"
        },
        {
            "bufferView" : 2,
            "componentType" : 5126,
            "count" : 8694,
            "type" : "VEC2"
        },
        {
            "bufferView" : 3,
            "componentType" : 5123,
            "count" : 44796,
            "type" : "SCALAR"
        },
        {
            "bufferView" : 4,
            "componentType" : 5126,
            "count" : 242,
            "max" : [
                2.518415689468384,
                0.34925174713134766,
                -0.7092642784118652
            ],
            "min" : [
                -2.35587215423584,
                -0.07005882263183594,
                -1.259481430053711
            ],
            "type" : "VEC3"
        },
        {
            "bufferView" : 5,
            "componentType" : 5126,
            "count" : 242,
            "type" : "VEC3"
        },
        {
            "bufferView" : 6,
            "componentType" : 5126,
            "count" : 242,
            "type" : "VEC2"
        },
        {
            "bufferView" : 7,
            "componentType" : 5123,
            "count" : 720,
            "type" : "SCALAR"
        },
        {
            "bufferView" : 8,
            "componentType" : 5126,
            "count" : 389,
            "max" : [
                2.5761847496032715,
                0.5931253433227539,
                -0.3918614387512207
            ],
            "min" : [
                -2.3708715438842773,
                -0.39004039764404297,
                -1.4910626411437988
            ],
            "type" : "VEC3"
        },
        {
            "bufferView" : 9,
            "componentType" : 5126,
            "count" : 389,
            "type" : "VEC3"
        },
        {
            "bufferView" : 10,
            "componentType" : 5126,
            "count" : 389,
            "type" : "VEC2"
        },
        {
            "bufferView" : 11,
            "componentType" : 5123,
            "count" : 1734,
            "type" : "SCALAR"
        },
        {
            "bufferView" : 12,
            "componentType" : 5126,
            "count" : 574,
            "max" : [
                2.5435900688171387,
                1.0470161437988281,
                -0.31714820861816406
            ],
            "min" : [
                -2.3196945190429688,
                -0.8219327926635742,
                -1.6554794311523438
            ],
            "type" : "VEC3"
        },
        {
            "bufferView" : 13,
            "componentType" : 5126,
            "count" : 574,
            "type" : "VEC3"
        },
        {
            "bufferView" : 14,
            "componentType" : 5126,
            "count" : 574,
            "type" : "VEC2"
        },
        {
            "bufferView" : 15,
            "componentType" : 5123,
            "count" : 2379,
            "type" : "SCALAR"
        },
        {
            "bufferView" : 16,
            "componentType" : 5126,
            "count" : 1406,
            "max" : [
                1.9786148071289062,
                0.4304800033569336,
                11.80447006225586
            ],
            "min" : [
                -2.633164405822754,
                -2.62308406829834,
                2.490983486175537
            ],
            "type" : "VEC3"
        },
        {
            "bufferView" : 17,
            "componentType" : 5126,
            "count" : 1406,
            "type" : "VEC3"
        },
        {
            "bufferView" : 18,
            "componentType" : 5126,
            "count" : 1406,
            "type" : "VEC2"
        },
        {
            "bufferView" : 19,
            "componentType" : 5123,
            "count" : 5460,
            "type" : "SCALAR"
        }
    ],
    "bufferViews" : [
        {
            "buffer" : 0,
            "byteLength" : 104328,
            "byteOffset" : 0
        },
        {
            "buffer" : 0,
            "byteLength" : 104328,
            "byteOffset" : 104328
        },
        {
            "buffer" : 0,
            "byteLength" : 69552,
            "byteOffset" : 208656
        },
        {
            "buffer" : 0,
            "byteLength" : 89592,
            "byteOffset" : 278208
        },
        {
            "buffer" : 0,
            "byteLength" : 2904,
            "byteOffset" : 367800
        },
        {
            "buffer" : 0,
            "byteLength" : 2904,
            "byteOffset" : 370704
        },
        {
            "buffer" : 0,
            "byteLength" : 1936,
            "byteOffset" : 373608
        },
        {
            "buffer" : 0,
            "byteLength" : 1440,
            "byteOffset" : 375544
        },
        {
            "buffer" : 0,
            "byteLength" : 4668,
            "byteOffset" : 376984
        },
        {
            "buffer" : 0,
            "byteLength" : 4668,
            "byteOffset" : 381652
        },
        {
            "buffer" : 0,
            "byteLength" : 3112,
            "byteOffset" : 386320
        },
        {
            "buffer" : 0,
            "byteLength" : 3468,
            "byteOffset" : 389432
        },
        {
            "buffer" : 0,
            "byteLength" : 6888,
            "byteOffset" : 392900
        },
        {
            "buffer" : 0,
            "byteLength" : 6888,
            "byteOffset" : 399788
        },
        {
            "buffer" : 0,
            "byteLength" : 4592,
            "byteOffset" : 406676
        },
        {
            "buffer" : 0,
            "byteLength" : 4758,
            "byteOffset" : 411268
        },
        {
            "buffer" : 0,
            "byteLength" : 16872,
            "byteOffset" : 416028
        },
        {
            "buffer" : 0,
            "byteLength" : 16872,
            "byteOffset" : 432900
        },
        {
            "buffer" : 0,
            "byteLength" : 11248,
            "byteOffset" : 449772
        },
        {
            "buffer" : 0,
            "byteLength" : 10920,
            "byteOffset" : 461020
        }
    ],
    "buffers" : [
        {
            "byteLength" : 471940,
            "uri" : "data:application/octet-stream;base64,"
        }
    ]
}
